<svg width="639" height="422" viewBox="0 0 639 422" fill="none" xmlns="http://www.w3.org/2000/svg">
<path d="M542.507 408.339C542.507 408.339 641.257 364.423 638.961 275.82C636.664 187.218 543.075 146.016 479.537 200.719C416.002 255.422 374.881 209.549 341.966 163.324C309.05 117.096 235.619 58.7546 139.275 85.7122C38.3531 113.953 7.29687 216.16 17.2922 284.363C24.4739 333.354 50.7344 374.889 86.5208 406.805C87.6856 407.844 88.8759 408.869 90.0971 409.88L542.507 408.339Z" fill="#EAEDFB"/>
<path d="M274.017 379.068H356.561V399.266H274.017V379.068Z" fill="#404DC4"/>
<path d="M372.149 409.806H258.431C255.521 409.806 253.16 407.445 253.16 404.535C253.16 401.627 255.521 399.268 258.431 399.268H372.149C375.061 399.268 377.42 401.627 377.42 404.535C377.42 407.445 375.061 409.806 372.149 409.806Z" fill="#5B62DB"/>
<path d="M501.008 146.633C501.008 140.055 495.677 134.724 489.099 134.724H141.481C134.903 134.724 129.573 140.055 129.573 146.633V347.839H501.008V146.633Z" fill="#5B62DB"/>
<path d="M145.51 151.759H485.07V332.296H145.51V151.759Z" fill="#EAEDFB"/>
<path d="M141.481 381.136H489.099C495.677 381.136 501.008 375.803 501.008 369.227V347.839H129.573V369.227C129.573 375.803 134.903 381.136 141.481 381.136Z" fill="white"/>
<path d="M322.351 364.488C322.351 368.388 319.189 371.548 315.291 371.548C311.392 371.548 308.228 368.388 308.228 364.488C308.228 360.588 311.392 357.428 315.291 357.428C319.189 357.428 322.351 360.588 322.351 364.488Z" fill="#404DC4"/>
<g opacity="0.57">
<path d="M241.805 151.717L162.283 331.537L187.776 332.336L268.088 152.539L241.805 151.717Z" fill="white"/>
<path d="M439.573 151.717L360.051 331.537L385.543 332.336L465.855 152.541L439.573 151.717Z" fill="white"/>
<path d="M310.042 151.143L225.548 327.97L299.846 332.883L385.118 156.107L310.042 151.143Z" fill="white"/>
</g>
<path d="M169.692 189.449H313.804V291.529H169.692V189.449Z" fill="white" stroke="#A2C9F8" stroke-width="0.00857111" stroke-miterlimit="10" stroke-linecap="round" stroke-linejoin="round"/>
<path d="M330.324 197.148H462.043" stroke="white" stroke-width="0.0080016" stroke-miterlimit="10"/>
<path d="M330.324 227.949H411.313" stroke="white" stroke-width="0.0080016" stroke-miterlimit="10"/>
<path d="M330.324 212.389H353.552" stroke="white" stroke-width="0.0080016" stroke-miterlimit="10"/>
<path d="M330.324 247.969H462.043" stroke="white" stroke-width="0.0080016" stroke-miterlimit="10"/>
<path d="M330.324 278.771H462.043" stroke="white" stroke-width="0.0080016" stroke-miterlimit="10"/>
<path d="M330.324 263.212H408.037" stroke="white" stroke-width="0.0080016" stroke-miterlimit="10"/>
<path d="M270.552 239.888C270.552 257.371 256.378 271.547 238.892 271.547C221.409 271.547 207.233 257.371 207.233 239.888C207.233 222.404 221.409 208.228 238.892 208.228C256.378 208.228 270.552 222.404 270.552 239.888Z" fill="#F04365"/>
<path d="M222.845 239.888H253.948" stroke="white" stroke-width="0.0119882" stroke-miterlimit="10" stroke-linecap="round" stroke-linejoin="round"/>
<path d="M523.208 303.955L543.974 401.351L547.255 399.533L529.25 300.611L523.208 303.955Z" fill="#1B1754"/>
<path d="M521.085 409.571H540.79V400.433H530.224C525.177 400.433 521.085 404.526 521.085 409.571Z" fill="#243051"/>
<path d="M544.407 409.571H564.954L564.112 400.433H553.545C548.498 400.433 544.407 404.526 544.407 409.571Z" fill="#243051"/>
<path d="M542.602 300.706L564.112 396.723L560.849 398.908L535.885 304.473L542.602 300.706Z" fill="#2A2B7B"/>
<path d="M538.787 248.948L566.838 273.99C569.164 276.066 572.655 276.143 575.072 274.17C577.823 271.922 578.191 267.851 575.885 265.144C575.885 265.144 562.335 246.966 554.746 240.93L538.787 248.948Z" fill="#F04365"/>
<path d="M582.086 309.9C582.086 313.621 579.068 316.639 575.347 316.639C571.625 316.639 568.609 313.621 568.609 309.9C568.609 306.178 571.625 303.162 575.347 303.162C579.068 303.162 582.086 306.178 582.086 309.9Z" fill="#F89A6E"/>
<path d="M566.667 271.163L570.365 304.684H579.982L577.792 270.071C577.559 266.802 574.58 264.435 571.342 264.946C568.361 265.417 566.292 268.167 566.667 271.163Z" fill="#F04365"/>
<path d="M535.902 236.223C535.902 236.223 522.143 236.656 521.409 250.421C520.671 264.265 523.015 300.762 523.015 300.762H557.229L558.093 256.061C560.23 244.115 554.178 236.52 541.908 236.059C540.066 235.99 538.068 236.037 535.902 236.223Z" fill="#F04365"/>
<path d="M557.902 266.013L552.012 260.755L557.691 276.911L557.902 266.013Z" fill="#D72E57"/>
<path d="M489.318 224.371C489.318 228.093 486.302 231.111 482.58 231.111C478.858 231.111 475.839 228.093 475.839 224.371C475.839 220.649 478.858 217.63 482.58 217.63C486.302 217.63 489.318 220.649 489.318 224.371Z" fill="#F89A6E"/>
<path d="M503.825 260.971L489.316 228.019L480.065 230.938L493.149 264.289C494.037 267.445 497.437 269.161 500.503 268.006C503.328 266.941 504.797 263.829 503.825 260.971Z" fill="#F04365"/>
<path d="M530.558 237.428C512.43 244.959 496.097 256.521 496.097 256.521C493.363 258.021 492.128 261.286 493.181 264.223C494.381 267.569 498.099 269.274 501.417 268.002L529.064 254.548L530.558 237.428Z" fill="#F04365"/>
<path d="M521.266 258.343C521.268 258.341 521.41 250.419 521.41 250.419L515.145 261.322L521.266 258.343Z" fill="#D72E57"/>
<path d="M531.92 228.406L532.353 237.652C532.448 239.665 533.709 241.434 535.584 242.178C539.138 243.59 542.929 240.753 542.578 236.944L542.021 227.757L531.92 228.406Z" fill="#F89A6E"/>
<path d="M531.837 232.356C531.837 232.356 536.811 236.15 540.511 229.591C544.211 223.033 537.107 222.821 537.107 222.821L533.513 227.92L531.837 232.356Z" fill="#E88057"/>
<path d="M526.295 195.511C520.414 195.492 520.416 195.496 526.296 195.518C532.179 195.541 541.714 195.575 547.594 195.594C553.474 195.613 553.473 195.61 547.591 195.587C541.709 195.564 532.173 195.53 526.295 195.511Z" fill="#F89A6E"/>
<path d="M541.355 221.308C541.355 221.308 535.407 232.079 543.775 235.04C552.144 238.003 554.546 214.716 554.546 214.716L545.492 196.97L523.417 195.439L522.185 203.083C522.185 203.083 524.292 210.525 542.805 217.53L541.355 221.308Z" fill="#243051"/>
<path d="M536.847 212.842L539.46 221.623L546.112 217.736L536.847 212.842Z" fill="#243051"/>
<path d="M539.998 215.358C538.426 215.353 538.429 215.354 540.001 215.36C541.574 215.366 544.124 215.375 545.695 215.38C547.268 215.385 547.268 215.384 545.695 215.378C544.122 215.372 541.571 215.363 539.998 215.358Z" fill="#F89A6E"/>
<path d="M523.415 213.71C523.415 213.71 520.815 203.947 528.293 197.497C534.46 192.177 544.34 193.036 549.578 199.549C552.037 202.607 553.7 205.716 553.749 212.362L523.415 213.71Z" fill="#FDD63B"/>
<path d="M552.886 217.015C552.828 217.015 552.77 217.013 552.708 217.006L516.539 213.122C515.678 213.026 515.059 212.248 515.156 211.388C515.252 210.529 516.013 209.919 516.89 210.003L553.059 213.888C553.918 213.985 554.539 214.762 554.442 215.623C554.353 216.423 553.672 217.015 552.886 217.015Z" fill="#F2A62F"/>
<path d="M544.024 77.8026C544.024 93.358 531.414 105.969 515.857 105.969C500.305 105.969 487.692 93.358 487.692 77.8026C487.692 62.2472 500.305 49.6347 515.857 49.6347C531.414 49.6347 544.024 62.2472 544.024 77.8026Z" fill="#5B62DB"/>
<path d="M519.491 62.2635L519.302 82.5873H512.366C512.366 74.8997 512.226 69.9985 512.226 62.2635H519.491ZM519.984 90.0201C519.984 95.4582 511.733 95.4582 511.733 90.0201C511.733 84.5347 519.984 84.5347 519.984 90.0201Z" fill="white"/>
<path d="M335.884 27.6128L338.197 33.6351C339.624 37.3406 342.551 40.269 346.254 41.6922L352.278 44.0072L346.254 46.3222C342.551 47.7473 339.624 50.6738 338.197 54.3793L335.884 60.4016L333.569 54.3793C332.144 50.6738 329.217 47.7473 325.512 46.3222L319.49 44.0072L325.512 41.6922C329.217 40.269 332.144 37.3406 333.569 33.6351L335.884 27.6128Z" fill="#EAEDFB"/>
<path d="M400.511 79.5098L402.066 83.5465C403.019 86.0308 404.981 87.9927 407.464 88.9482L411.502 90.5006L407.464 92.0513C404.981 93.0068 403.019 94.9687 402.066 97.453L400.511 101.49L398.959 97.453C398.005 94.9687 396.043 93.0068 393.559 92.0513L389.522 90.5006L393.559 88.9482C396.043 87.9927 398.005 86.0308 398.959 83.5465L400.511 79.5098Z" fill="#EAEDFB"/>
<path d="M8.92156 114.004L10.181 117.282C10.9581 119.298 12.5506 120.893 14.5672 121.666L17.8449 122.927L14.5672 124.187C12.5506 124.962 10.9581 126.555 10.181 128.571L8.92156 131.851L7.66213 128.571C6.88682 126.555 5.29251 124.962 3.27597 124.187L0 122.927L3.27597 121.666C5.29251 120.893 6.88682 119.298 7.66213 117.282L8.92156 114.004Z" fill="#EAEDFB"/>
<path d="M606.415 130.613L607.675 133.891C608.45 135.907 610.043 137.5 612.061 138.275L615.337 139.535L612.061 140.796C610.043 141.571 608.45 143.164 607.675 145.18L606.415 148.458L605.156 145.18C604.381 143.164 602.786 141.571 600.77 140.796L597.494 139.535L600.77 138.275C602.786 137.5 604.381 135.907 605.156 133.891L606.415 130.613Z" fill="#EAEDFB"/>
<path d="M151.232 63.6668L157.722 70.2642C159.136 71.702 161.258 72.1788 163.149 71.4818C166.738 70.1623 167.67 65.5195 164.867 62.9169L158.323 56.4451L151.232 63.6668Z" fill="#F89A6E"/>
<path d="M157.229 52.2039C157.229 52.2039 159.538 52.1934 157.403 52.2022C152.753 52.2213 148.945 52.2383 148.945 52.2383L153.096 52.2212L157.229 52.2039Z" fill="#E88057"/>
<path d="M139.375 44.3174C135.238 48.7331 135.393 55.5986 139.722 59.648C144.051 63.6984 150.917 63.4013 155.054 58.9856C159.192 54.5689 159.036 47.7044 154.707 43.655C150.378 39.6046 143.513 39.9007 139.375 44.3174Z" fill="#F89A6E"/>
<path d="M153.527 52.0862C153.527 52.0862 156.282 64.0762 164.491 60.7002C172.701 57.3241 158.954 38.3744 158.954 38.3744L140.37 31.1946L122.906 44.7826L124.848 56.5506C124.848 56.5506 131.079 52.1135 149.543 44.981L153.527 52.0862Z" fill="#243051"/>
<path d="M144.52 48.7866L152.324 53.5859L154.688 46.2513L144.52 48.7866Z" fill="#243051"/>
<path d="M154.391 54.9218C154.391 54.9218 167.391 90.3405 183.573 74.1808C197.925 59.8466 176.222 51.1307 170.343 49.5965C165.848 48.4226 164.126 46.8865 158.454 41.6195L147.202 43.2375L154.391 54.9218Z" fill="#243051"/>
<path d="M152.366 48.9304C151.26 50.111 151.301 51.9453 152.46 53.0294C153.616 54.1126 155.453 54.0337 156.56 52.854C157.666 51.6726 157.625 49.8383 156.467 48.7551C155.31 47.671 153.473 47.7499 152.366 48.9304Z" fill="#F89A6E"/>
<path d="M129.954 20.9366C129.954 20.9366 124.717 20.9157 130.457 20.9351C135.189 20.9511 145.309 20.9878 152.306 21.0144C155.594 21.0269 158.096 21.0366 159.939 21.0446L129.954 20.9366Z" fill="#FDD63B"/>
<path d="M160.472 42.7497C160.423 42.7788 160.368 42.8061 160.314 42.8298L126.903 57.2149C126.105 57.5553 125.185 57.1822 124.846 56.385C124.507 55.5897 124.871 54.6851 125.676 54.3284L159.087 39.9433C159.884 39.6029 160.807 39.976 161.144 40.7732C161.459 41.5139 161.158 42.3638 160.472 42.7497Z" fill="#F2A62F"/>
<path d="M130.031 137.931L96.7454 172.063L88.2351 168.299L117.042 127.437C119.865 122.758 126.533 122.441 129.789 126.831C131.709 129.423 131.806 135.238 130.031 137.931Z" fill="#1B1754"/>
<path d="M75.3984 160.632L90.6794 160.68L96.8429 160.698L88.9811 160.674C85.2262 160.662 79.1478 160.643 75.3984 160.632Z" fill="#243051"/>
<path d="M153.045 117.586L119.366 123.579L126.309 136.723H171.488C171.488 136.723 185.073 136.402 178.801 121.513L153.045 117.586Z" fill="#2A2B7B"/>
<path d="M131.8 127.869L147.836 180.928L138.796 186.113L113.438 134.861C110.854 130.045 113.982 124.147 119.419 123.586C122.627 123.257 130.39 124.967 131.8 127.869Z" fill="#2A2B7B"/>
<path d="M137.262 180.975L151.554 180.929L145.228 180.949L137.276 180.974C133.476 180.987 133.472 180.987 137.262 180.975Z" fill="#243051"/>
<path d="M151.114 77.6388C151.114 77.6388 152.473 71.6893 154.199 69.8547C155.425 68.5498 159.848 64.382 162.278 63.4866C162.998 63.219 163.797 63.3046 164.454 63.705C167.361 65.4831 175.349 71.2634 179.267 83.035C183.04 94.3735 183.846 126.64 183.846 126.64C173.121 133.609 153.047 117.584 153.047 117.584C153.562 97.4784 148.595 96.4592 151.114 77.6388Z" fill="#F04365"/>
<path d="M148.951 108.812L156.227 115.934C158.673 118.401 161.379 116.395 162.818 113.982L173.778 93.9394L148.951 108.812Z" fill="#D72E57"/>
<path d="M134.714 114.441L125.357 111.097C124.6 110.826 123.756 110.97 123.13 111.48L118.967 114.87C117.746 115.866 118.021 117.802 119.471 118.419C120.21 118.734 121.064 118.597 121.67 118.068L123.666 116.315C123.666 116.315 130.519 120.235 133.764 119.16L134.714 114.441Z" fill="#F97D7D"/>
<path d="M158.557 72.885L156.919 103.519L132.004 109.987L133.038 119.313L163.481 116.13C165.665 115.984 167.676 114.983 169.101 113.391C169.891 112.508 170.305 111.354 170.446 110.18L174.226 78.4087L158.557 72.885Z" fill="#F04365"/>
<path d="M116.66 126.645L152.006 120.459C153.09 120.27 153.815 119.238 153.625 118.153C153.434 117.069 152.402 116.344 151.319 116.534L115.974 122.72C114.889 122.911 114.163 123.943 114.354 125.026C114.543 126.11 115.575 126.835 116.66 126.645Z" fill="#243051"/>
<path d="M116.92 124.747C116.714 124.747 116.507 124.662 116.359 124.494L95.08 100.381C94.8088 100.072 94.838 99.6005 95.1455 99.3275C95.4549 99.0545 95.9263 99.0818 96.1993 99.393L117.479 123.508C117.752 123.815 117.722 124.289 117.413 124.56C117.271 124.687 117.095 124.747 116.92 124.747Z" fill="#243051"/>
<path d="M158.27 63.1444C158.27 63.1444 168.349 87.3847 182.132 75.3037C195.916 63.2208 167.101 56.2557 167.101 56.2557L158.27 63.1444Z" fill="#243051"/>
<path d="M432.922 401.991L455.545 358.911C456.624 356.857 459.488 357.209 459.979 359.458L470.233 406.576L432.922 401.991Z" fill="#F2A62F"/>
<path d="M437.086 369.084H469.018V378.027H437.086V369.084Z" fill="#FAFAFA"/>
<path d="M435.337 385.988H471.453V394.931H435.337V385.988Z" fill="#FAFAFA"/>
<path d="M476.552 409.487H430.317C428.53 409.487 427.082 408.039 427.082 406.253C427.082 404.466 428.53 403.017 430.317 403.017H476.552C478.338 403.017 479.786 404.466 479.786 406.253C479.786 408.039 478.338 409.487 476.552 409.487Z" fill="#EB9924"/>
<path d="M79.166 352.01H93.2253V391.763H79.166V352.01Z" fill="#8BBDF8"/>
<path d="M153.299 352.01H167.361V391.763H153.299V352.01Z" fill="#8BBDF8"/>
<path d="M175.127 409.589H70.5867C67.1979 409.589 64.4497 406.841 64.4497 403.45V395.674C64.4497 392.285 67.1979 389.537 70.5867 389.537H175.127C178.514 389.537 181.262 392.285 181.262 395.674V403.45C181.262 406.841 178.514 409.589 175.127 409.589Z" fill="#5B62DB"/>
<path d="M173.194 355.233H73.8062C68.6375 355.233 64.4497 351.044 64.4497 345.875V328.742C64.4497 323.573 68.6375 319.385 73.8062 319.385H173.194C178.363 319.385 182.552 323.573 182.552 328.742V345.875C182.552 351.044 178.363 355.233 173.194 355.233Z" fill="#F2A62F"/>
<path d="M62.9699 367.811H41.6852L91.2797 312.792H112.564L62.9699 367.811Z" fill="white"/>
<path d="M149.425 367.811H128.14L177.736 312.792H199.019L149.425 367.811Z" fill="white"/>
<path d="M105.31 367.811H84.0255L133.622 312.792H154.905L105.31 367.811Z" fill="white"/>
</svg>
