<?xml version="1.0" standalone="no"?>
<!DOCTYPE svg PUBLIC "-//W3C//DTD SVG 20010904//EN"
 "http://www.w3.org/TR/2001/REC-SVG-20010904/DTD/svg10.dtd">
<svg version="1.0" xmlns="http://www.w3.org/2000/svg"
 width="192.000000pt" height="192.000000pt" viewBox="0 0 192.000000 192.000000"
 preserveAspectRatio="xMidYMid meet">
 

<g transform="translate(0.000000,192.000000) scale(0.100000,-0.100000)"
fill="#000000" stroke="none">
<path d="M1163 1797 c-199 -56 -360 -103 -358 -105 5 -6 889 -103 911 -100
l21 3 -23 80 c-12 44 -28 100 -34 124 -17 65 -58 101 -112 100 -24 0 -206 -46
-405 -102z"/>
<path d="M351 1570 c-73 -22 -144 -46 -156 -54 -13 -9 -29 -32 -35 -52 -11
-34 -4 -65 106 -460 74 -264 122 -418 126 -407 4 10 30 232 58 493 28 261 53
485 56 498 6 28 6 28 -155 -18z"/>
<path d="M484 225 c3 -10 14 -48 23 -84 21 -85 55 -121 112 -121 35 0 494 121
528 139 7 4 -123 21 -290 39 -166 19 -320 36 -341 39 -35 5 -39 4 -32 -12z"/>
</g>
</svg>
